<svg xmlns="http://www.w3.org/2000/svg" width="180" height="53" fill="none"><g clip-path="url(#a)"><path fill="#56369B" d="M149.017 31.618a5.935 5.935 0 1 1 0 11.87 5.935 5.935 0 0 1 0-11.87ZM149.017 16.779a5.935 5.935 0 0 1 0 11.87 5.935 5.935 0 1 1 0-11.87ZM160.887 24.198a5.936 5.936 0 1 1 0 11.872 5.936 5.936 0 0 1 0-11.872ZM160.887 9.36a5.936 5.936 0 1 1 0 11.871 5.936 5.936 0 0 1 0-11.871ZM149.017 1.94a5.935 5.935 0 0 1 0 11.87 5.935 5.935 0 1 1 0-11.87ZM174.064 16.78a5.936 5.936 0 1 1 0 11.871c-4.062 0-6.17-4.116-8.725-5.936 2.555-1.822 4.663-5.935 8.725-5.935ZM85.355 6.836a1.696 1.696 0 1 1 3.392-.001 1.696 1.696 0 0 1-3.392 0ZM115.107 8.61h2.957v20.602h-2.957V8.611ZM104.635 26.45h5.887v2.762H91.34c-1.705 0-3.232-.678-4.285-1.764-1.056 1.086-2.583 1.764-4.289 1.764H34.005v-22.8h2.956V26.45h45.805c1.66 0 2.809-1.142 2.809-2.554V12.944h2.957v10.953c0 1.412 1.15 2.554 2.808 2.554h7.449c-1.816-.51-3.267-1.964-3.267-5.65 0-9.223 8.756-8.883 13.461-7.262v3.176c-3.373-1.374-10.385-2.647-10.385 4.085 0 1.744.543 3.119 1.625 4.132 1.086 1.014 2.549 1.519 4.412 1.519ZM120.194 5.056v1.595h-7.212V5.056h1.112c-.488-.45-.725-1.141-.725-2.104 0-.967.369-1.718 1.094-2.235 1.328-.947 3.475-.84 4.908-.344l.111.034v1.82l-.222-.09c-1.178-.483-2.88-.661-3.677-.122-.323.212-.475.521-.475.937 0 2.079 2.524 2.104 2.63 2.104h2.456ZM20.184 34.095a1.909 1.909 0 1 1-3.818 0 1.909 1.909 0 0 1 3.818 0ZM29.346 12.944v16.268H9.01c-2.77 0-4.98-.763-6.63-2.29C.726 25.398-.102 23.354-.102 20.8c0-2.54.828-4.582 2.482-6.108 1.65-1.536 3.86-2.296 6.63-2.296v2.745c-1.861 0-3.325.509-4.411 1.523-1.082 1.018-1.625 2.397-1.625 4.136 0 1.744.543 3.118 1.625 4.132 1.086 1.014 2.55 1.519 4.411 1.519h17.38V12.944h2.956Z"/><path fill="#5FC1B4" d="M45.19 48.97c-.227.292-.588.438-1.083.438-.497 0-.857-.146-1.083-.438-.226-.292-.338-.757-.338-1.394 0-.584.112-1.04.338-1.368.226-.328.586-.492 1.083-.492.495 0 .856.164 1.082.492.225.327.339.784.339 1.368 0 .637-.114 1.102-.339 1.394Zm-7.963-.525c-.16.138-.31.25-.452.34-.15-.638-.396-1.187-.737-1.648a3.858 3.858 0 0 0-1.189-1.075c.098-.063.297-.135.598-.22.301-.084.65-.126 1.05-.126.22 0 .431.018.63.053.2.036.37.096.511.18a.954.954 0 0 1 .339.338c.084.142.126.324.126.545 0 .212-.042.419-.126.617-.084.2-.19.381-.319.545a3.198 3.198 0 0 1-.431.451Zm-13.832.525c-.226.292-.587.438-1.083.438s-.857-.146-1.082-.438c-.227-.292-.339-.757-.339-1.394 0-.584.113-1.04.339-1.368.225-.328.586-.492 1.082-.492.496 0 .857.164 1.082.492.226.327.339.784.339 1.368 0 .637-.113 1.102-.338 1.394Zm20.712-4.29c-.788 0-1.408.228-1.86.684-.451.456-.677 1.193-.677 2.212v.272c0 .084.004.17.013.259 0 .23-.024.423-.073.577-.049.155-.113.28-.192.372a.7.7 0 0 1-.266.2.768.768 0 0 1-.292.06h-2.823a.683.683 0 0 1-.192-.027 3.48 3.48 0 0 0 1.03-1.002c.145-.217.265-.457.358-.718.092-.261.139-.534.139-.817 0-.638-.226-1.142-.677-1.514-.452-.372-1.152-.558-2.099-.558a5.391 5.391 0 0 0-2.211.465 5.26 5.26 0 0 0-.418.212c-.09.054-.133.142-.133.266v.797c0 .044.01.086.033.126.022.04.073.087.152.14.195.142.388.283.578.425a3.085 3.085 0 0 1 .944 1.155c.119.248.214.55.285.903a3.49 3.49 0 0 1-.671.127c-.19.013-.343.02-.458.02h-1.86c-.363 0-.653-.076-.87-.226-.216-.15-.325-.377-.325-.678v-6.96c0-.087-.044-.132-.132-.132h-.85c-.089 0-.133.045-.133.133v7.159c0 .265-.051.45-.153.55-.102.103-.264.154-.485.154h-4.144c-.194 0-.378-.082-.55-.247-.174-.163-.264-.47-.273-.922a5.372 5.372 0 0 0 .027-.571c0-1.019-.226-1.756-.678-2.212-.451-.456-1.072-.684-1.859-.684-.788 0-1.408.228-1.86.684-.45.456-.677 1.193-.677 2.212a7.109 7.109 0 0 0 .027.624.686.686 0 0 1-.166.404 1.547 1.547 0 0 1-.333.273 8.14 8.14 0 0 1-.411.239c-.146.08-.281.18-.405.3a1.4 1.4 0 0 0-.306.45c-.08.182-.12.41-.12.685v2.444h1.116V50.83c0-.248.04-.43.12-.545.08-.115.175-.208.285-.279.111-.07.226-.137.346-.199a.827.827 0 0 0 .312-.305c.221.327.507.566.857.716.35.15.754.226 1.215.226.407 0 .77-.057 1.09-.172a1.91 1.91 0 0 0 .81-.558c.087.142.194.254.318.339.124.084.254.148.391.192.138.044.277.074.42.087.14.013.273.02.398.02h4.249c.7 0 1.16-.23 1.382-.691.115.23.279.402.491.518.213.115.46.172.744.172h2.085c.257 0 .549-.028.877-.086.327-.057.637-.166.93-.325.256.16.528.268.816.325.287.058.591.086.91.086h2.444c.247 0 .518-.037.81-.112.292-.076.531-.255.717-.538.221.256.492.444.81.564.319.12.686.18 1.103.18.39 0 .741-.056 1.056-.166.314-.111.58-.282.796-.512.217-.23.385-.527.505-.89s.18-.797.18-1.301c0-1.019-.227-1.756-.678-2.212-.451-.456-1.071-.684-1.86-.684ZM63.763 44.92h-1.182l2.39-2.803c.036-.07.019-.133-.052-.186l-.638-.532c-.062-.034-.12-.021-.173.04L61.2 44.866a.973.973 0 0 0-.074.086.205.205 0 0 0-.046.127v.743c0 .09.045.133.133.133h2.138c1.01 0 1.514.448 1.514 1.342v.823c0 .23-.012.42-.04.571a.76.76 0 0 1-.159.366.672.672 0 0 1-.345.199c-.151.04-.35.06-.598.06H58.61c-.363 0-.653-.076-.87-.226-.218-.15-.326-.377-.326-.678v-6.96c0-.087-.044-.132-.132-.132h-.85c-.09 0-.133.045-.133.133v8.62c0 .654-.182 1.128-.545 1.42-.363.293-.828.439-1.394.439-.23 0-.465-.031-.704-.093a1.973 1.973 0 0 1-.664-.312 1.617 1.617 0 0 1-.498-.598c-.129-.252-.193-.569-.193-.95 0-.398.073-.779.22-1.142.145-.363.298-.668.457-.916.044-.07.032-.128-.04-.173l-.73-.398c-.088-.053-.15-.049-.186.013-.23.328-.432.733-.604 1.215a4.446 4.446 0 0 0-.259 1.508c0 .47.075.883.226 1.242.15.358.36.661.63.91.27.247.598.436.983.564a4.08 4.08 0 0 0 1.295.193c1.01 0 1.782-.258 2.318-.771.535-.513.803-1.226.803-2.138v-.16c.248.284.602.426 1.063.426H64.135c.336 0 .624-.036.863-.107.24-.07.437-.192.592-.365.154-.173.27-.405.345-.698.075-.292.113-.659.113-1.102v-.797c0-.814-.213-1.412-.638-1.793-.425-.38-.974-.57-1.647-.57ZM71.746 43.074h.903c.088 0 .133-.045.133-.134v-.97c0-.087-.045-.132-.133-.132h-.903c-.09 0-.134.044-.134.133v.97c0 .088.045.133.134.133ZM73.365 43.074h.904c.088 0 .132-.045.132-.134v-.97c0-.087-.044-.132-.132-.132h-.904c-.089 0-.133.044-.133.133v.97c0 .088.044.133.133.133ZM92.888 43.605h.904c.088 0 .133-.045.133-.133v-.97c0-.088-.045-.133-.133-.133h-.904c-.088 0-.132.045-.132.133v.97c0 .088.044.133.132.133ZM100.24 48.97c-.226.292-.587.438-1.082.438-.496 0-.857-.146-1.083-.438-.226-.292-.338-.757-.338-1.395 0-.584.112-1.04.338-1.367.226-.328.587-.492 1.083-.492.495 0 .856.164 1.082.492.226.327.339.783.339 1.367 0 .638-.113 1.103-.339 1.395Zm-11.58-.419a.978.978 0 0 1-.18.465.695.695 0 0 1-.372.233c-.16.044-.363.066-.611.066h-3.932c.045-.203.067-.416.067-.637V46.54c.194-.097.409-.195.644-.293.235-.097.483-.185.744-.265.26-.08.528-.144.803-.193a4.64 4.64 0 0 1 .81-.073c.399 0 .73.047.996.14.266.093.479.228.638.405.16.177.272.393.339.65.066.258.1.55.1.877 0 .31-.016.565-.047.764Zm-14.378-1.507c0 .532-.104.945-.312 1.242-.208.297-.564.445-1.07.445-.424 0-.752-.117-.982-.352-.23-.234-.346-.582-.346-1.042 0-.612.132-1.035.392-1.27.262-.233.6-.35 1.017-.35h1.301v1.327Zm26.735-1.68c-.451-.456-1.072-.684-1.86-.684s-1.407.228-1.858.684c-.453.456-.678 1.193-.678 2.212v.272c0 .084.004.17.014.259 0 .23-.025.423-.074.577-.048.155-.113.28-.192.372a.703.703 0 0 1-.266.2.765.765 0 0 1-.292.06h-.717c-.363 0-.653-.076-.87-.227-.217-.15-.325-.376-.325-.677v-3.36c0-.088-.045-.133-.133-.133h-.85c-.088 0-.133.045-.133.133v3.56c0 .265-.051.449-.153.55-.102.103-.263.154-.485.154h-.837l-.045.002-.047-.002h-.147c-.362 0-.653-.076-.87-.227-.216-.15-.325-.376-.325-.677 0-.07.002-.157.007-.26.004-.1.007-.209.007-.324 0-.425-.05-.828-.147-1.209a2.483 2.483 0 0 0-.511-1.003 2.513 2.513 0 0 0-.976-.684c-.407-.167-.921-.252-1.541-.252-.558 0-1.102.08-1.633.24a8.03 8.03 0 0 0-1.448.583v-.45c0-.09-.044-.134-.133-.134h-.85c-.089 0-.133.045-.133.133v3.56c0 .265-.05.449-.153.55-.102.103-.263.154-.484.154H76.036c-.222 0-.383-.051-.486-.153-.101-.102-.152-.286-.152-.551v-4.503c0-.089-.045-.133-.133-.133h-.85c-.088 0-.133.044-.133.133v.571h-1.301c-.328 0-.645.047-.95.14a2.086 2.086 0 0 0-.803.451 2.25 2.25 0 0 0-.558.817c-.142.336-.213.753-.213 1.249 0 .416.062.776.186 1.082.124.306.294.558.511.757.217.2.474.347.77.445.297.097.618.146.963.146.293 0 .563-.04.811-.12.248-.08.46-.199.638-.358.079.38.24.653.484.817.244.163.582.245 1.016.245h6.242c.372 0 .668-.057.89-.172.088.115.239.172.451.172h4.463c.434 0 .79-.062 1.069-.185.279-.124.494-.337.644-.638.098.265.268.47.512.61.243.143.52.213.83.213h.28l.045-.002.046.002h1.037c.7 0 1.16-.23 1.381-.69.115.23.279.402.491.517.213.116.46.173.744.173h.757c.248 0 .518-.037.81-.112.292-.076.531-.255.717-.538.221.256.492.444.81.564.319.12.686.18 1.103.18.389 0 .74-.056 1.055-.166.315-.111.58-.282.798-.512.216-.23.385-.527.504-.89.12-.363.179-.797.179-1.302 0-1.018-.225-1.755-.677-2.21Z"/></g><defs><clipPath id="a"><path fill="#fff" d="M0 0h180v52.995H0z"/></clipPath></defs></svg>