<svg width="180" height="53" viewBox="0 0 180 53" fill="none" xmlns="http://www.w3.org/2000/svg">
<g clip-path="url(#clip0_328_23615)">
<path d="M149.017 31.6177C152.295 31.6177 154.952 34.2751 154.952 37.5534C154.952 40.8312 152.295 43.4886 149.017 43.4886C145.738 43.4886 143.081 40.8312 143.081 37.5534C143.081 34.2751 145.738 31.6177 149.017 31.6177Z" fill="#56369B"/>
<path d="M149.017 16.7788C152.295 16.7788 154.952 19.4362 154.952 22.714C154.952 25.9924 152.295 28.6498 149.017 28.6498C145.738 28.6498 143.081 25.9924 143.081 22.714C143.081 19.4362 145.738 16.7788 149.017 16.7788Z" fill="#56369B"/>
<path d="M160.887 24.1985C164.165 24.1985 166.823 26.8559 166.823 30.1332C166.823 33.412 164.165 36.0694 160.887 36.0694C157.61 36.0694 154.951 33.412 154.951 30.1332C154.951 26.8559 157.61 24.1985 160.887 24.1985Z" fill="#56369B"/>
<path d="M160.887 9.35962C164.165 9.35962 166.823 12.017 166.823 15.2948C166.823 18.5727 164.165 21.2306 160.887 21.2306C157.61 21.2306 154.951 18.5727 154.951 15.2948C154.951 12.017 157.61 9.35962 160.887 9.35962Z" fill="#56369B"/>
<path d="M149.017 1.93994C152.295 1.93994 154.952 4.59734 154.952 7.87516C154.952 11.1535 152.295 13.8109 149.017 13.8109C145.738 13.8109 143.081 11.1535 143.081 7.87516C143.081 4.59734 145.738 1.93994 149.017 1.93994Z" fill="#56369B"/>
<path d="M174.064 16.78C177.344 16.78 180 19.4364 180 22.7153C180 25.992 177.344 28.651 174.064 28.651C170.002 28.651 167.894 24.5345 165.339 22.7153C167.894 20.8934 170.002 16.78 174.064 16.78Z" fill="#56369B"/>
<path d="M85.3545 6.83563C85.3545 5.898 86.1138 5.13867 87.0515 5.13867C87.9891 5.13867 88.7479 5.898 88.7479 6.83563C88.7479 7.77327 87.9891 8.5326 87.0515 8.5326C86.1138 8.5326 85.3545 7.77327 85.3545 6.83563Z" fill="#56369B"/>
<path d="M115.107 8.61084H118.064V29.2123H115.107V8.61084Z" fill="#56369B"/>
<path d="M104.635 26.4507H110.522V29.2123H91.3398C89.6346 29.2123 88.1076 28.5339 87.0554 27.4475C85.9986 28.5339 84.4716 29.2123 82.7664 29.2123H34.0049V6.41113H36.9608V26.4507H82.7664C84.4255 26.4507 85.5746 25.3094 85.5746 23.897V12.944H88.5316V23.897C88.5316 25.3094 89.6812 26.4507 91.3398 26.4507H98.789C96.9729 25.9418 95.5221 24.4869 95.5221 20.8001C95.5221 11.5782 104.278 11.9177 108.983 13.5385V16.7152C105.61 15.3407 98.5978 14.0682 98.5978 20.8001C98.5978 22.5437 99.141 23.9188 100.223 24.9321C101.309 25.9459 102.772 26.4507 104.635 26.4507Z" fill="#56369B"/>
<path d="M120.194 5.05627V6.65113H112.982V5.05627H114.094C113.606 4.60689 113.369 3.91494 113.369 2.95243C113.369 1.98526 113.738 1.23422 114.463 0.716942C115.791 -0.2295 117.938 -0.123764 119.371 0.372781L119.482 0.40699V2.22679L119.26 2.13764C118.082 1.65406 116.38 1.47575 115.583 2.0148C115.26 2.22679 115.108 2.53623 115.108 2.95243C115.108 5.03088 117.632 5.05627 117.738 5.05627H120.194Z" fill="#56369B"/>
<path d="M20.1836 34.0948C20.1836 35.1506 19.3268 36.0032 18.2752 36.0032C17.2183 36.0032 16.3662 35.1506 16.3662 34.0948C16.3662 33.0426 17.2183 32.1853 18.2752 32.1853C19.3268 32.1853 20.1836 33.0426 20.1836 34.0948Z" fill="#56369B"/>
<path d="M29.3465 12.9438V29.2122H9.01041C6.24054 29.2122 4.03044 28.4487 2.38013 26.9217C0.725668 25.3984 -0.101562 23.3537 -0.101562 20.8004C-0.101562 18.2591 0.725668 16.2185 2.38013 14.6916C4.03044 13.1558 6.24054 12.3965 9.01041 12.3965V15.1415C7.14862 15.1415 5.6849 15.6499 4.59852 16.6643C3.51679 17.6823 2.97412 19.061 2.97412 20.8004C2.97412 22.5435 3.51679 23.9181 4.59852 24.9319C5.6849 25.9458 7.14862 26.4506 9.01041 26.4506H26.39V12.9438H29.3465Z" fill="#56369B"/>
<path d="M45.1891 48.9704C44.9631 49.2622 44.6023 49.4084 44.1068 49.4084C43.6103 49.4084 43.2501 49.2622 43.0241 48.9704C42.7981 48.6781 42.6856 48.2131 42.6856 47.5756C42.6856 46.9915 42.7981 46.5354 43.0241 46.2078C43.2501 45.8802 43.6103 45.7164 44.1068 45.7164C44.6023 45.7164 44.9631 45.8802 45.1891 46.2078C45.4145 46.5354 45.5275 46.9915 45.5275 47.5756C45.5275 48.2131 45.4145 48.6781 45.1891 48.9704ZM37.2267 48.4453C37.0671 48.5827 36.9168 48.6957 36.7753 48.7843C36.6244 48.1468 36.3788 47.5979 36.0382 47.1371C35.6972 46.6774 35.3007 46.3187 34.8492 46.0616C34.9467 45.9994 35.1457 45.9269 35.4474 45.8424C35.748 45.7584 36.0978 45.7164 36.4964 45.7164C36.7172 45.7164 36.9282 45.734 37.1272 45.7693C37.3262 45.805 37.4968 45.8647 37.6383 45.9486C37.7803 46.0331 37.8928 46.1456 37.9767 46.2871C38.0612 46.4291 38.1032 46.6105 38.1032 46.8318C38.1032 47.0443 38.0612 47.2506 37.9767 47.4491C37.8928 47.6482 37.7865 47.8301 37.6585 47.9939C37.5299 48.1577 37.3859 48.3085 37.2267 48.4453ZM23.3945 48.9704C23.1685 49.2622 22.8077 49.4084 22.3122 49.4084C21.8157 49.4084 21.4549 49.2622 21.2295 48.9704C21.0035 48.6781 20.891 48.2131 20.891 47.5756C20.891 46.9915 21.0035 46.5354 21.2295 46.2078C21.4549 45.8802 21.8157 45.7164 22.3122 45.7164C22.8077 45.7164 23.1685 45.8802 23.3945 46.2078C23.6199 46.5354 23.7329 46.9915 23.7329 47.5756C23.7329 48.2131 23.6199 48.6781 23.3945 48.9704ZM44.1068 44.6803C43.3185 44.6803 42.6986 44.9084 42.2471 45.3645C41.7957 45.8201 41.5697 46.5571 41.5697 47.5756V47.8477C41.5697 47.9322 41.5744 48.0183 41.5832 48.1069C41.5832 48.337 41.5588 48.5298 41.5101 48.6843C41.4614 48.8393 41.3971 48.9637 41.3178 49.0564C41.238 49.1497 41.1493 49.2161 41.0519 49.256C40.9539 49.2959 40.857 49.3156 40.7596 49.3156H37.9373C37.871 49.3156 37.8067 49.3068 37.7445 49.2886C37.9218 49.1824 38.1011 49.043 38.2825 48.8704C38.4639 48.6983 38.6277 48.5034 38.7739 48.2862C38.9201 48.0696 39.0398 47.8301 39.1326 47.5689C39.2253 47.3076 39.272 47.0355 39.272 46.752C39.272 46.1145 39.046 45.6102 38.5946 45.238C38.1431 44.8659 37.4434 44.6803 36.4964 44.6803C36.1953 44.6803 35.9071 44.7021 35.6329 44.7466C35.3587 44.7912 35.1084 44.8488 34.8824 44.9192C34.6564 44.9903 34.4574 45.0654 34.2848 45.1452C34.1122 45.2245 33.9727 45.2961 33.8665 45.3572C33.7779 45.4106 33.7338 45.4992 33.7338 45.6231V46.4198C33.7338 46.4643 33.7447 46.5063 33.767 46.5462C33.7887 46.5861 33.8401 46.6328 33.9194 46.6857C34.1142 46.8277 34.3071 46.9692 34.4973 47.1107C34.6875 47.2522 34.8627 47.4186 35.0218 47.6088C35.1815 47.799 35.3209 48.0183 35.4406 48.266C35.5598 48.5143 35.6547 48.8154 35.7257 49.1694C35.4691 49.2404 35.2457 49.2824 35.055 49.2959C34.8642 49.3089 34.7119 49.3156 34.5968 49.3156H32.7376C32.3743 49.3156 32.0845 49.2404 31.8679 49.0896C31.6507 48.9393 31.5424 48.7133 31.5424 48.4122V41.4528C31.5424 41.3646 31.4978 41.3201 31.4097 41.3201H30.5596C30.471 41.3201 30.427 41.3646 30.427 41.4528V48.6117C30.427 48.8771 30.3756 49.0611 30.2741 49.1627C30.1719 49.2648 30.0102 49.3156 29.7889 49.3156H27.4917C27.4891 49.3156 27.4871 49.3156 27.485 49.3156C27.4824 49.3156 27.4809 49.3156 27.4788 49.3156H25.6455C25.4506 49.3156 25.2666 49.2337 25.0945 49.0694C24.9214 48.9061 24.8307 48.5982 24.8219 48.1468C24.8307 48.0582 24.8375 47.9654 24.8421 47.8674C24.8463 47.77 24.8489 47.6731 24.8489 47.5756C24.8489 46.5571 24.6229 45.8201 24.1714 45.3645C23.72 44.9084 23.0995 44.6803 22.3122 44.6803C21.5239 44.6803 20.904 44.9084 20.4525 45.3645C20.0011 45.8201 19.7751 46.5571 19.7751 47.5756C19.7751 47.6907 19.7771 47.799 19.7818 47.9011C19.786 48.0027 19.7927 48.1022 19.8015 48.1997C19.7839 48.3681 19.7284 48.5034 19.6356 48.6045C19.5423 48.7071 19.4319 48.7973 19.3034 48.8771C19.1749 48.9569 19.038 49.0367 18.8919 49.116C18.7457 49.1959 18.6109 49.2959 18.4865 49.4151C18.3627 49.5343 18.2611 49.6852 18.1813 49.8666C18.1014 50.0485 18.0615 50.2765 18.0615 50.5507V52.9946H19.1775V50.8301C19.1775 50.5818 19.2174 50.3999 19.2967 50.2848C19.377 50.1703 19.4719 50.077 19.5823 50.006C19.6932 49.9355 19.8082 49.8692 19.928 49.8075C20.0472 49.7453 20.1514 49.6432 20.24 49.5017C20.4613 49.8292 20.7469 50.0682 21.0968 50.2185C21.4461 50.3688 21.8514 50.4445 22.3122 50.4445C22.7191 50.4445 23.0824 50.3869 23.4012 50.2719C23.72 50.1568 23.9895 49.9707 24.2113 49.7137C24.2994 49.8557 24.4057 49.9682 24.5301 50.0526C24.654 50.1366 24.7841 50.2009 24.9214 50.2449C25.0588 50.2895 25.1982 50.3185 25.3402 50.3315C25.4817 50.345 25.6144 50.3512 25.7388 50.3512H27.4788C27.4809 50.3512 27.4829 50.3512 27.4855 50.3512C27.4876 50.3512 27.4891 50.3512 27.4917 50.3512H29.9885C30.6877 50.3512 31.1485 50.1211 31.3698 49.6608C31.4848 49.8909 31.6486 50.0635 31.8611 50.1786C32.0736 50.2942 32.3214 50.3512 32.6049 50.3512H34.6896C34.9467 50.3512 35.239 50.3227 35.5666 50.2651C35.8941 50.2076 36.2041 50.0993 36.4964 49.9396C36.753 50.0993 37.0251 50.2076 37.3128 50.2651C37.6004 50.3227 37.9042 50.3512 38.2229 50.3512H40.6668C40.9145 50.3512 41.1846 50.3139 41.4769 50.2387C41.7692 50.163 42.0082 49.9842 42.1943 49.7007C42.4151 49.9573 42.6856 50.1454 43.0044 50.2651C43.3226 50.3844 43.6901 50.4445 44.1068 50.4445C44.4961 50.4445 44.848 50.389 45.1626 50.2786C45.4767 50.1677 45.7421 49.9972 45.9593 49.767C46.176 49.5369 46.3444 49.2404 46.4641 48.8771C46.5839 48.5143 46.6435 48.0804 46.6435 47.5756C46.6435 46.5571 46.4175 45.8201 45.966 45.3645C45.5146 44.9084 44.8947 44.6803 44.1068 44.6803Z" fill="#5FC1B4"/>
<path d="M63.763 44.9192H62.5813L64.9717 42.1172C65.007 42.0462 64.9899 41.984 64.9189 41.9306L64.2808 41.3994C64.2192 41.3646 64.1616 41.3776 64.1082 41.4393L61.2 44.8659C61.1818 44.884 61.1575 44.9125 61.1264 44.9524C61.0958 44.9923 61.0802 45.0343 61.0802 45.0789V45.8222C61.0802 45.9113 61.1248 45.9554 61.2129 45.9554H63.351C64.3612 45.9554 64.8655 46.4027 64.8655 47.2968V48.1204C64.8655 48.3505 64.8525 48.5407 64.8256 48.691C64.7986 48.8419 64.7458 48.9637 64.6665 49.057C64.5866 49.1492 64.4711 49.2161 64.3213 49.256C64.1699 49.2959 63.9709 49.3151 63.7231 49.3151H58.7691C58.7665 49.3151 58.7644 49.3156 58.7618 49.3156C58.7597 49.3156 58.7582 49.3151 58.7561 49.3151H58.61C58.2466 49.3151 57.9569 49.2404 57.7397 49.0896C57.5225 48.9393 57.4142 48.7133 57.4142 48.4122V41.4528C57.4142 41.3646 57.3701 41.3201 57.282 41.3201H56.4315C56.3428 41.3201 56.2988 41.3646 56.2988 41.4528V50.0723C56.2988 50.7275 56.1174 51.2012 55.754 51.4936C55.3912 51.7859 54.9263 51.932 54.3598 51.932C54.1291 51.932 53.8948 51.9009 53.6559 51.8387C53.417 51.7771 53.1951 51.6729 52.9919 51.5267C52.7877 51.3806 52.6219 51.1815 52.4938 50.9291C52.3653 50.6772 52.301 50.36 52.301 49.9796C52.301 49.581 52.3741 49.2005 52.5203 48.8372C52.6664 48.4744 52.8188 48.1686 52.9785 47.9208C53.0225 47.8503 53.0096 47.7928 52.9386 47.7482L52.2082 47.3496C52.1196 47.2968 52.0574 47.3014 52.0222 47.3631C51.792 47.6907 51.5904 48.096 51.4178 48.578C51.2452 49.0611 51.1592 49.5633 51.1592 50.0858C51.1592 50.5554 51.2343 50.969 51.3846 51.3277C51.535 51.6864 51.7454 51.9891 52.0154 52.2373C52.2855 52.4851 52.6131 52.6738 52.9982 52.8018C53.3833 52.9303 53.8155 52.9946 54.2934 52.9946C55.3026 52.9946 56.0749 52.7375 56.6108 52.2239C57.1462 51.7107 57.4142 50.9975 57.4142 50.0858V49.9267C57.6625 50.2102 58.0165 50.3517 58.4773 50.3517H58.7561C58.7587 50.3517 58.7608 50.3512 58.7629 50.3512C58.7654 50.3512 58.767 50.3517 58.7691 50.3517H64.1352C64.4711 50.3517 64.7592 50.3159 64.9982 50.2449C65.2371 50.1744 65.4346 50.0532 65.5896 49.88C65.744 49.7074 65.8596 49.4752 65.9348 49.1824C66.0099 48.8901 66.0478 48.5231 66.0478 48.0804V47.2833C66.0478 46.469 65.8353 45.8714 65.4102 45.4899C64.9852 45.11 64.4358 44.9192 63.763 44.9192Z" fill="#5FC1B4"/>
<path d="M71.7455 43.0736H72.6489C72.737 43.0736 72.7816 43.029 72.7816 42.9403V41.9706C72.7816 41.8825 72.737 41.8379 72.6489 41.8379H71.7455C71.6569 41.8379 71.6123 41.8825 71.6123 41.9706V42.9403C71.6123 43.029 71.6569 43.0736 71.7455 43.0736Z" fill="#5FC1B4"/>
<path d="M73.3651 43.0736H74.2685C74.3566 43.0736 74.4012 43.029 74.4012 42.9403V41.9706C74.4012 41.8825 74.3566 41.8379 74.2685 41.8379H73.3651C73.276 41.8379 73.2324 41.8825 73.2324 41.9706V42.9403C73.2324 43.029 73.276 43.0736 73.3651 43.0736Z" fill="#5FC1B4"/>
<path d="M92.8885 43.6048H93.792C93.8801 43.6048 93.9247 43.5602 93.9247 43.4716V42.5018C93.9247 42.4137 93.8801 42.3691 93.792 42.3691H92.8885C92.7999 42.3691 92.7559 42.4137 92.7559 42.5018V43.4716C92.7559 43.5602 92.7999 43.6048 92.8885 43.6048Z" fill="#5FC1B4"/>
<path d="M100.24 48.9703C100.014 49.2621 99.6532 49.4083 99.1577 49.4083C98.6616 49.4083 98.3014 49.2621 98.0754 48.9703C97.8494 48.678 97.7365 48.2131 97.7365 47.5755C97.7365 46.9914 97.8494 46.5353 98.0754 46.2077C98.3014 45.8801 98.6616 45.7163 99.1577 45.7163C99.6532 45.7163 100.014 45.8801 100.24 46.2077C100.466 46.5353 100.579 46.9914 100.579 47.5755C100.579 48.2131 100.466 48.678 100.24 48.9703ZM88.6592 48.5515C88.6276 48.7511 88.5685 48.906 88.4799 49.0164C88.3912 49.1274 88.2668 49.2051 88.1077 49.2486C87.9486 49.2932 87.7449 49.3155 87.4966 49.3155H83.5652C83.6098 49.1118 83.6316 48.8993 83.6316 48.678V46.5399C83.8264 46.4425 84.041 46.345 84.2758 46.2471C84.5106 46.1502 84.7589 46.0615 85.0196 45.9817C85.2808 45.9019 85.5483 45.8376 85.823 45.7894C86.0977 45.7407 86.3683 45.7163 86.6331 45.7163C87.0317 45.7163 87.3639 45.763 87.6293 45.8558C87.8952 45.9485 88.1077 46.0838 88.2668 46.2606C88.4265 46.4378 88.539 46.6545 88.6058 46.911C88.6722 47.1687 88.7053 47.4605 88.7053 47.788C88.7053 48.098 88.6898 48.3525 88.6592 48.5515ZM74.2822 47.0443C74.2822 47.5755 74.178 47.9891 73.9702 48.2861C73.7618 48.5826 73.4057 48.7309 72.9009 48.7309C72.4759 48.7309 72.1483 48.6137 71.9182 48.3789C71.688 48.1446 71.5724 47.7968 71.5724 47.3366C71.5724 46.7255 71.7036 46.3025 71.9643 46.0677C72.226 45.8335 72.5645 45.7163 72.9807 45.7163H74.2822V47.0443ZM101.017 45.3644C100.566 44.9083 99.9455 44.6802 99.1577 44.6802C98.3693 44.6802 97.7499 44.9083 97.2985 45.3644C96.8465 45.82 96.621 46.557 96.621 47.5755V47.8476C96.621 47.9321 96.6252 48.0182 96.6345 48.1068C96.6345 48.3369 96.6096 48.5297 96.5614 48.6842C96.5127 48.8392 96.4484 48.9636 96.3686 49.0564C96.2888 49.1496 96.2002 49.216 96.1032 49.2559C96.0058 49.2958 95.9084 49.3155 95.8109 49.3155H95.0936C94.7307 49.3155 94.441 49.2404 94.2238 49.0895C94.0072 48.9392 93.8989 48.7132 93.8989 48.4121V45.0524C93.8989 44.9637 93.8543 44.9192 93.7662 44.9192H92.9156C92.8275 44.9192 92.7829 44.9637 92.7829 45.0524V48.6116C92.7829 48.877 92.7316 49.061 92.6305 49.1626C92.5284 49.2647 92.3667 49.3155 92.1454 49.3155H91.3083C91.2922 49.3155 91.2783 49.3171 91.2627 49.3176C91.2466 49.3171 91.2326 49.3155 91.2161 49.3155H91.0694C90.7066 49.3155 90.4163 49.2404 90.1996 49.0895C89.9825 48.9392 89.8741 48.7132 89.8741 48.4121C89.8741 48.3416 89.8762 48.255 89.8809 48.1529C89.885 48.0519 89.8876 47.943 89.8876 47.8279C89.8876 47.4029 89.8384 47.0002 89.7414 46.6192C89.644 46.2388 89.4735 45.904 89.2299 45.6163C88.9863 45.3292 88.6608 45.1006 88.2539 44.9321C87.8465 44.7647 87.3328 44.6802 86.7129 44.6802C86.1552 44.6802 85.6105 44.76 85.0797 44.9192C84.5485 45.0788 84.0654 45.2737 83.6316 45.5033V45.0524C83.6316 44.9637 83.5875 44.9192 83.4994 44.9192H82.6488C82.5602 44.9192 82.5161 44.9637 82.5161 45.0524V48.6116C82.5161 48.877 82.4653 49.061 82.3632 49.1626C82.2611 49.2647 82.0999 49.3155 81.8791 49.3155H79.5814C79.5789 49.3155 79.5768 49.3155 79.5742 49.3155C79.5721 49.3155 79.57 49.3155 79.568 49.3155H78.1074C78.1048 49.3155 78.1027 49.3155 78.1001 49.3155C78.098 49.3155 78.096 49.3155 78.0939 49.3155H76.6333C76.6302 49.3155 76.6281 49.3155 76.6255 49.3155C76.6234 49.3155 76.6219 49.3155 76.6193 49.3155H76.0357C75.8143 49.3155 75.6526 49.2647 75.5505 49.1626C75.4489 49.061 75.3976 48.877 75.3976 48.6116V44.109C75.3976 44.0204 75.353 43.9758 75.2649 43.9758H74.4149C74.3268 43.9758 74.2822 44.0204 74.2822 44.109V44.6802H72.9807C72.6526 44.6802 72.3364 44.7269 72.0312 44.8196C71.7253 44.9124 71.4579 45.0633 71.2278 45.2711C70.9966 45.4789 70.811 45.7516 70.6695 46.088C70.528 46.4243 70.457 46.8411 70.457 47.3366C70.457 47.7528 70.5187 48.113 70.6426 48.4188C70.767 48.7246 70.9375 48.9765 71.1542 49.1761C71.3713 49.3751 71.6279 49.5234 71.9249 49.6208C72.2214 49.7182 72.5422 49.767 72.8874 49.767C73.1803 49.767 73.4498 49.7271 73.6981 49.6472C73.9458 49.5679 74.1583 49.4482 74.3356 49.2886C74.4149 49.6695 74.5761 49.9416 74.8197 50.1059C75.0638 50.2692 75.4023 50.3511 75.8361 50.3511H76.6193C76.6224 50.3511 76.6245 50.3511 76.6276 50.3511C76.6296 50.3511 76.6312 50.3511 76.6333 50.3511H78.0939C78.0965 50.3511 78.0985 50.3511 78.1006 50.3511C78.1032 50.3511 78.1048 50.3511 78.1074 50.3511H79.568C79.5706 50.3511 79.5726 50.3511 79.5747 50.3511C79.5773 50.3511 79.5789 50.3511 79.5814 50.3511H82.0782C82.4498 50.3511 82.7463 50.2941 82.9681 50.1785C83.0562 50.2941 83.2065 50.3511 83.419 50.3511H87.8823C88.3156 50.3511 88.6722 50.2894 88.951 50.1655C89.2299 50.0417 89.4445 49.8292 89.5953 49.528C89.6927 49.7934 89.8633 49.9971 90.1069 50.1386C90.35 50.2806 90.6267 50.3511 90.9367 50.3511H91.2161C91.2321 50.3511 91.2461 50.3495 91.2617 50.349C91.2777 50.3495 91.2917 50.3511 91.3083 50.3511H92.3449C93.0441 50.3511 93.5044 50.121 93.7263 49.6607C93.8408 49.8908 94.0046 50.0634 94.2171 50.1785C94.4301 50.2941 94.6779 50.3511 94.9609 50.3511H95.7181C95.9659 50.3511 96.2359 50.3138 96.5277 50.2386C96.8201 50.163 97.059 49.9841 97.2451 49.7006C97.4664 49.9572 97.7365 50.1453 98.0557 50.2651C98.374 50.3843 98.7415 50.4444 99.1577 50.4444C99.5469 50.4444 99.8989 50.3889 100.213 50.2785C100.528 50.1676 100.793 49.9971 101.011 49.767C101.227 49.5368 101.396 49.2404 101.515 48.877C101.635 48.5142 101.694 48.0804 101.694 47.5755C101.694 46.557 101.469 45.82 101.017 45.3644Z" fill="#5FC1B4"/>
</g>
<defs>
<clipPath id="clip0_328_23615">
<rect width="180" height="52.9945" fill="white"/>
</clipPath>
</defs>
</svg>
