<svg xmlns="http://www.w3.org/2000/svg" width="13" height="15" fill="none"><path fill="#6B7280" d="M12.297 13.372h-.547V.904c0-.356-.3-.657-.656-.657H1.906c-.383 0-.656.301-.656.657v12.468H.703a.333.333 0 0 0-.328.328v.547h12.25V13.7a.353.353 0 0 0-.328-.328ZM3.875 2.325c0-.164.137-.328.328-.328h1.094c.164 0 .328.164.328.328V3.42a.332.332 0 0 1-.328.328H4.203a.316.316 0 0 1-.328-.328V2.325Zm0 2.625c0-.164.137-.328.328-.328h1.094c.164 0 .328.164.328.328v1.094a.332.332 0 0 1-.328.328H4.203a.316.316 0 0 1-.328-.328V4.95Zm1.422 4.047H4.203a.316.316 0 0 1-.328-.328V7.575c0-.164.137-.328.328-.328h1.094c.164 0 .328.164.328.328V8.67a.332.332 0 0 1-.328.328Zm2.078 4.375h-1.75v-2.297c0-.164.137-.328.328-.328h1.094c.164 0 .328.164.328.328v2.297Zm1.75-4.703a.332.332 0 0 1-.328.328H7.703a.316.316 0 0 1-.328-.328V7.575c0-.164.137-.328.328-.328h1.094c.164 0 .328.164.328.328V8.67Zm0-2.625a.332.332 0 0 1-.328.328H7.703a.316.316 0 0 1-.328-.328V4.95c0-.164.137-.328.328-.328h1.094c.164 0 .328.164.328.328v1.094Zm0-2.625a.332.332 0 0 1-.328.328H7.703a.316.316 0 0 1-.328-.328V2.325c0-.164.137-.328.328-.328h1.094c.164 0 .328.164.328.328V3.42Z"/></svg>