<svg width="13" height="15" viewBox="0 0 13 15" fill="none" xmlns="http://www.w3.org/2000/svg">
<path d="M12.2969 13.3723H11.75V0.903564C11.75 0.548096 11.4492 0.247314 11.0938 0.247314H1.90625C1.52344 0.247314 1.25 0.548096 1.25 0.903564V13.3723H0.703125C0.511719 13.3723 0.375 13.5364 0.375 13.7004V14.2473H12.625V13.7004C12.625 13.5364 12.4609 13.3723 12.2969 13.3723ZM3.875 2.32544C3.875 2.16138 4.01172 1.99731 4.20312 1.99731H5.29688C5.46094 1.99731 5.625 2.16138 5.625 2.32544V3.41919C5.625 3.6106 5.46094 3.74731 5.29688 3.74731H4.20312C4.01172 3.74731 3.875 3.6106 3.875 3.41919V2.32544ZM3.875 4.95044C3.875 4.78638 4.01172 4.62231 4.20312 4.62231H5.29688C5.46094 4.62231 5.625 4.78638 5.625 4.95044V6.04419C5.625 6.2356 5.46094 6.37231 5.29688 6.37231H4.20312C4.01172 6.37231 3.875 6.2356 3.875 6.04419V4.95044ZM5.29688 8.99731H4.20312C4.01172 8.99731 3.875 8.8606 3.875 8.66919V7.57544C3.875 7.41138 4.01172 7.24731 4.20312 7.24731H5.29688C5.46094 7.24731 5.625 7.41138 5.625 7.57544V8.66919C5.625 8.8606 5.46094 8.99731 5.29688 8.99731ZM7.375 13.3723H5.625V11.0754C5.625 10.9114 5.76172 10.7473 5.95312 10.7473H7.04688C7.21094 10.7473 7.375 10.9114 7.375 11.0754V13.3723ZM9.125 8.66919C9.125 8.8606 8.96094 8.99731 8.79688 8.99731H7.70312C7.51172 8.99731 7.375 8.8606 7.375 8.66919V7.57544C7.375 7.41138 7.51172 7.24731 7.70312 7.24731H8.79688C8.96094 7.24731 9.125 7.41138 9.125 7.57544V8.66919ZM9.125 6.04419C9.125 6.2356 8.96094 6.37231 8.79688 6.37231H7.70312C7.51172 6.37231 7.375 6.2356 7.375 6.04419V4.95044C7.375 4.78638 7.51172 4.62231 7.70312 4.62231H8.79688C8.96094 4.62231 9.125 4.78638 9.125 4.95044V6.04419ZM9.125 3.41919C9.125 3.6106 8.96094 3.74731 8.79688 3.74731H7.70312C7.51172 3.74731 7.375 3.6106 7.375 3.41919V2.32544C7.375 2.16138 7.51172 1.99731 7.70312 1.99731H8.79688C8.96094 1.99731 9.125 2.16138 9.125 2.32544V3.41919Z" fill="#6B7280"/>
</svg>
