<svg xmlns="http://www.w3.org/2000/svg" width="15" height="15" fill="none"><path fill="#6B7280" d="m13.809 12.36-2.735-2.734c-.136-.11-.3-.191-.465-.191h-.437a5.701 5.701 0 0 0 1.203-3.5c0-3.117-2.57-5.688-5.688-5.688C2.543.247 0 2.817 0 5.935a5.683 5.683 0 0 0 5.688 5.687 5.651 5.651 0 0 0 3.5-1.203v.465a.64.64 0 0 0 .19.465l2.708 2.707c.273.273.684.273.93 0l.765-.766c.274-.246.274-.656.028-.93ZM5.688 9.436a3.49 3.49 0 0 1-3.5-3.5c0-1.914 1.558-3.5 3.5-3.5 1.914 0 3.5 1.586 3.5 3.5 0 1.941-1.586 3.5-3.5 3.5Z"/></svg>