<svg xmlns="http://www.w3.org/2000/svg" width="16" height="17" fill="none"><path fill="#6B7280" d="M8 3.747a3 3 0 1 0 .002 6.002A3 3 0 0 0 8 3.747Zm0 4.5a1.48 1.48 0 0 1-1.5-1.5 1.5 1.5 0 0 1 1.5-1.5c.813 0 1.5.688 1.5 1.5a1.5 1.5 0 0 1-1.5 1.5Zm0-7.5a7.749 7.749 0 0 0-7.75 7.75A7.749 7.749 0 0 0 8 16.247a7.749 7.749 0 0 0 7.75-7.75A7.749 7.749 0 0 0 8 .747Zm0 14c-1.563 0-3-.562-4.094-1.5.469-.718 1.281-1.218 2.188-1.218a6.87 6.87 0 0 0 1.906.28c.594 0 1.219-.093 1.875-.28.906.03 1.719.5 2.188 1.218A6.255 6.255 0 0 1 8 14.747Zm5.063-2.625a4.16 4.16 0 0 0-3.282-1.625c-.312 0-.812.313-1.781.313-1 0-1.5-.313-1.813-.313a4.16 4.16 0 0 0-3.28 1.625c-.75-1-1.157-2.25-1.157-3.625A6.248 6.248 0 0 1 8 2.247c3.438 0 6.25 2.813 6.25 6.25a6 6 0 0 1-1.188 3.625Z"/></svg>