<svg width="16" height="17" viewBox="0 0 16 17" fill="none" xmlns="http://www.w3.org/2000/svg">
<path d="M8 3.74731C6.34375 3.74731 5 5.09106 5 6.74731C5 8.40356 6.34375 9.74731 8 9.74731C9.65625 9.74731 11 8.40356 11 6.74731C11 5.09106 9.65625 3.74731 8 3.74731ZM8 8.24731C7.15625 8.24731 6.5 7.59106 6.5 6.74731C6.5 5.93481 7.15625 5.24731 8 5.24731C8.8125 5.24731 9.5 5.93481 9.5 6.74731C9.5 7.59106 8.8125 8.24731 8 8.24731ZM8 0.747314C3.71875 0.747314 0.25 4.21606 0.25 8.49731C0.25 12.7786 3.71875 16.2473 8 16.2473C12.2812 16.2473 15.75 12.7786 15.75 8.49731C15.75 4.21606 12.2812 0.747314 8 0.747314ZM8 14.7473C6.4375 14.7473 5 14.1848 3.90625 13.2473C4.375 12.5286 5.1875 12.0286 6.09375 12.0286C6.75 12.2161 7.375 12.3098 8 12.3098C8.59375 12.3098 9.21875 12.2161 9.875 12.0286C10.7812 12.0598 11.5938 12.5286 12.0625 13.2473C10.9688 14.1848 9.53125 14.7473 8 14.7473ZM13.0625 12.1223C12.3125 11.1536 11.125 10.4973 9.78125 10.4973C9.46875 10.4973 8.96875 10.8098 8 10.8098C7 10.8098 6.5 10.4973 6.1875 10.4973C4.84375 10.4973 3.65625 11.1536 2.90625 12.1223C2.15625 11.1223 1.75 9.87231 1.75 8.49731C1.75 5.05981 4.53125 2.24731 8 2.24731C11.4375 2.24731 14.25 5.05981 14.25 8.49731C14.25 9.87231 13.8125 11.1223 13.0625 12.1223Z" fill="#6B7280"/>
</svg>
